HIERARCHY
ROOT Hips
{
	OFFSET	0.00	0.00	0.00
	CHANNELS 6 Xposition Yposition Zposition Zrotation Xrotation Yrotation
	JOINT LeftUpLeg
	{
		OFFSET	 0.126116	-0.065224	 0.014019
		CHANNELS 3 Zrotation Xrotation Yrotation
		JOINT LeftLeg
		{
			OFFSET	 0.000000	 0.569914	 0.000000
			CHANNELS 3 Zrotation Xrotation Yrotation
			JOINT LeftFoot
			{
				OFFSET	 0.000000	 0.544423	 0.000000
				CHANNELS 3 Zrotation Xrotation Yrotation
				JOINT LeftToeBase
				{
					OFFSET	 0.000000	 0.207117	 0.000000
					CHANNELS 3 Zrotation Xrotation Yrotation
					End Site
					{
						OFFSET	 0.000000	 0.207117	 0.000000
					}
				}
			}
		}
	}
	JOINT RightUpLeg
	{
		OFFSET	-0.124023	-0.065224	 0.008373
		CHANNELS 3 Zrotation Xrotation Yrotation
		JOINT RightLeg
		{
			OFFSET	 0.000000	 0.570047	 0.000000
			CHANNELS 3 Zrotation Xrotation Yrotation
			JOINT RightFoot
			{
				OFFSET	 0.000000	 0.544354	 0.000000
				CHANNELS 3 Zrotation Xrotation Yrotation
				JOINT RightToeBase
				{
					OFFSET	 0.000000	 0.207540	 0.000000
					CHANNELS 3 Zrotation Xrotation Yrotation
					End Site
					{
						OFFSET	 0.000000	 0.207540	 0.000000
					}
				}
			}
		}
	}
	JOINT Spine
	{
		OFFSET	 0.000184	 0.117403	 0.007763
		CHANNELS 3 Zrotation Xrotation Yrotation
		JOINT Spine1
		{
			OFFSET	 0.000000	 0.137269	 0.000000
			CHANNELS 3 Zrotation Xrotation Yrotation
			JOINT Spine2
			{
				OFFSET	 0.000000	 0.156879	 0.000000
				CHANNELS 3 Zrotation Xrotation Yrotation
				JOINT LeftShoulder
				{
					OFFSET	 0.080501	 0.160143	 0.002496
					CHANNELS 3 Zrotation Xrotation Yrotation
					JOINT LeftArm
					{
						OFFSET	 0.000000	 0.164363	 0.000000
						CHANNELS 3 Zrotation Xrotation Yrotation
						JOINT LeftForeArm
						{
							OFFSET	 0.000000	 0.364576	 0.000000
							CHANNELS 3 Zrotation Xrotation Yrotation
							JOINT LeftHand
							{
								OFFSET	 0.000000	 0.360812	 0.000000
								CHANNELS 3 Zrotation Xrotation Yrotation
								JOINT LeftHandIndex1
								{
									OFFSET	 0.000000	 0.086006	 0.000000
									CHANNELS 3 Zrotation Xrotation Yrotation
									JOINT LeftHandIndex2
									{
										OFFSET	 0.000000	 0.047237	 0.000000
										CHANNELS 3 Zrotation Xrotation Yrotation
										JOINT LeftHandIndex3
										{
											OFFSET	-0.004284	 0.038165	 0.000551
											CHANNELS 3 Zrotation Xrotation Yrotation
											End Site
											{
												OFFSET	-0.004284	 0.038165	 0.000551
											}
										}
									}
								}
							}
						}
					}
				}
				JOINT Neck
				{
					OFFSET	 0.000000	 0.176489	 0.000000
					CHANNELS 3 Zrotation Xrotation Yrotation
					JOINT Head
					{
						OFFSET	 0.000000	 0.077941	 0.001747
						CHANNELS 3 Zrotation Xrotation Yrotation
						End Site
						{
							OFFSET	 0.000000	 0.077941	 0.001747
						}
					}
				}
				JOINT RightShoulder
				{
					OFFSET	-0.080363	 0.159706	-0.000306
					CHANNELS 3 Zrotation Xrotation Yrotation
					JOINT RightArm
					{
						OFFSET	 0.000000	 0.164196	 0.000000
						CHANNELS 3 Zrotation Xrotation Yrotation
						JOINT RightForeArm
						{
							OFFSET	 0.000000	 0.365611	 0.000000
							CHANNELS 3 Zrotation Xrotation Yrotation
							JOINT RightHand
							{
								OFFSET	 0.000000	 0.360648	 0.000000
								CHANNELS 3 Zrotation Xrotation Yrotation
								JOINT RightHandIndex1
								{
									OFFSET	 0.000000	 0.069977	 0.000000
									CHANNELS 3 Zrotation Xrotation Yrotation
									JOINT RightHandIndex2
									{
										OFFSET	 0.000000	 0.052305	 0.000000
										CHANNELS 3 Zrotation Xrotation Yrotation
										JOINT RightHandIndex3
										{
											OFFSET	 0.009002	 0.042196	 0.000782
											CHANNELS 3 Zrotation Xrotation Yrotation
											End Site
											{
												OFFSET	 0.009002	 0.042196	 0.000782
											}
										}
									}
								}
							}
						}
					}
				}
			}
		}
	}
}
MOTION
Frames:    12
Frame Time: 0.03333334
-0.060490	 1.179247	-3.535362	-4.219399	 2.172818	 179.976400	 171.605200	 27.194860	-11.489980	 6.756509	-41.592700	 1.453864	-11.644440	 72.167000	 21.752780	 1.372778	 29.473300	-2.748036	 174.690900	-25.068380	 1.325174	-3.050736	-35.289960	 3.813251	 2.261522	 53.865250	 2.017673	-2.859813	 44.688160	 6.007450	-4.395071	 8.504503	 4.802468	-0.275161	 3.185375	 1.231547	-0.549072	-3.899250	 0.402780	-121.668800	 5.093041	 92.896560	-29.528410	 52.005460	 28.561910	 25.473510	-1.274862	 0.204361	-14.958370	 13.926640	 26.681140	 4.432129	 20.473730	-1.645360	-5.862680	 23.960830	 2.650846	 5.473870	 7.703897	-0.112030	-0.147133	-5.124933	-0.519397	-2.468064	-1.634470	-3.995058	 119.151400	 0.765807	-91.218110	-6.527303	 46.855070	-4.331706	-26.399930	-1.002308	-0.176523	-1.146909	 14.611370	-6.494636	-2.764264	 26.708050	 1.497258	 16.231490	 46.363390	-12.412670	-8.527287	 24.394780	-1.254703
-0.062296	 1.187331	-3.577775	-4.045430	 2.449120	-178.474400	 170.966400	 24.065190	-9.865579	 6.602926	-40.942620	 1.240830	-13.574460	 73.261400	 23.360560	 1.353320	 29.221990	-2.739479	 175.681800	-16.916700	 2.449157	-4.556206	-46.572000	 3.294071	 1.815722	 61.489140	 2.055077	-1.663214	 33.390040	 3.160740	-3.861923	 8.805444	 3.231571	-0.117976	 3.066698	 0.903721	-0.534162	-3.718031	 0.299263	-121.994000	 5.550430	 93.145840	-21.837720	 52.417700	 23.117470	 23.903990	-1.201221	 0.170458	-12.091550	 13.911770	 24.119140	 4.472453	 20.648980	-1.706890	-5.861626	 22.923820	 2.534799	 5.398162	 5.907393	-0.141474	-0.164282	-5.062704	-0.442827	-2.685651	-1.526084	-3.752316	 119.075700	 0.620685	-91.146730	-3.465396	 47.776280	-5.773064	-25.690410	-0.977186	-0.164282	 1.751003	 16.907030	-7.726376	-2.743039	 27.154830	 1.487962	 16.308650	 46.633710	-12.527270	-8.525157	 24.836530	-1.284359
-0.063053	 1.201026	-3.628257	-3.724127	 2.432595	-177.243000	 170.830600	 19.989890	-8.842411	 6.019155	-38.348460	 1.884822	-11.101690	 74.315350	 20.633950	 1.386873	 29.654580	-2.754284	 176.270200	-11.110850	 3.200960	-5.310816	-50.910030	 3.073711	 1.778861	 69.220820	 2.447459	-1.640314	 32.707160	 3.424125	-3.141392	 8.879068	 1.686421	-0.036641	 2.710975	 0.581937	-0.431936	-3.412537	 0.094688	-121.928000	 5.873131	 93.302900	-9.141715	 53.182590	 13.961120	 16.078490	-0.821088	 0.032129	-3.438675	 12.322620	 19.522760	 4.561086	 20.134410	-1.711347	-5.861898	 22.450890	 2.482172	 5.369795	 5.238383	-0.153025	-0.170300	-4.966915	-0.337646	-2.640266	-1.545269	-3.527375	 118.946900	 0.452239	-91.062570	-1.434936	 48.775470	-6.629486	-22.708390	-0.870197	-0.116212	 2.959739	 18.650300	-9.395086	-2.692931	 27.209810	 1.463155	 16.307450	 46.629510	-12.525490	-8.524694	 24.925790	-1.290367
-0.061918	 1.212581	-3.691504	-3.350542	 2.363618	-176.061300	 171.106300	 15.526960	-7.945354	 5.579032	-36.258880	 2.813384	-8.907489	 76.314700	 17.822310	 1.428892	 30.191370	-2.773153	 176.596800	-2.586543	 3.835263	-6.086630	-54.657360	 2.763531	 1.997542	 74.413110	 2.428781	-1.737665	 33.626530	 4.110022	-2.376820	 8.901165	 0.000112	 0.149398	 2.845568	 0.105875	-0.369124	-3.334572	-0.122349	-121.803300	 6.176705	 93.445650	-5.101148	 51.832920	 11.730250	 22.068360	-1.113757	 0.133287	-2.435156	 10.599570	 14.436830	 4.656892	 19.514540	-1.706173	-5.862472	 22.061910	 2.439016	 5.348500	 4.737773	-0.161877	-0.174827	-4.865839	-0.227907	-2.554634	-1.583388	-3.304511	 118.810100	 0.279665	-90.976610	 5.007405	 49.604790	-10.917010	-24.676180	-0.941097	-0.147249	 6.043237	 19.674010	-11.459280	-2.638363	 27.205810	 1.435971	 16.294340	 46.583900	-12.506080	-8.524503	 24.962100	-1.292813
-0.061387	 1.213392	-3.738163	-3.306759	 1.860627	-175.258300	 171.110600	 13.257480	-7.304264	 5.549077	-35.851750	 3.887751	-5.807833	 78.338290	 14.411400	 1.458948	 30.571940	-2.786871	 175.580400	 5.571299	 5.554337	-7.315816	-59.438100	 2.452818	 8.878778	 80.879360	-3.343961	-1.737261	 33.646990	 4.009147	-2.078451	 8.652182	-0.922373	 0.140944	 2.917098	-0.120562	-0.330427	-3.437551	-0.320042	-121.712400	 6.678171	 93.690760	-3.608355	 50.319940	 11.700180	 28.804300	-1.428175	 0.282939	-2.623002	 8.245816	 12.179980	 4.674034	 19.464040	-1.708719	-5.862570	 22.011280	 2.433406	 5.345964	 4.678308	-0.162938	-0.175632	-4.852704	-0.150582	-2.406263	-1.768164	-3.285471	 118.678100	 0.058114	-90.868650	 10.478660	 49.914720	-14.498580	-26.936530	-1.021178	-0.186015	 8.333588	 19.844900	-12.569880	-2.489849	 26.281240	 1.357292	 16.023550	 45.613430	-12.100570	-8.528643	 24.081440	-1.233743
-0.060919	 1.212448	-3.788325	-3.308648	 1.259041	-174.503000	 171.149200	 10.659290	-6.544834	 5.326669	-35.006970	 4.755705	-1.309655	 80.271620	 9.603690	 1.487897	 30.935810	-2.800256	 173.959500	 14.348940	 7.709759	-8.641627	-63.065190	 2.113711	 32.718510	 85.315960	-25.945510	-1.718464	 33.506290	 3.763080	-1.857442	 8.345969	-1.768663	 0.139732	 3.126019	-0.347272	-0.314094	-3.644277	-0.519836	-121.627100	 7.230673	 93.961200	-0.033726	 48.362160	 10.078860	 34.190290	-1.665589	 0.428467	-2.789388	 5.856457	 10.269820	 4.677567	 19.514520	-1.712847	-5.862552	 22.020040	 2.434376	 5.346736	 4.696475	-0.162610	-0.175770	-4.855004	-0.076773	-2.242097	-1.984987	-3.301961	 118.543400	-0.179125	-90.753970	 16.216270	 49.983540	-18.295040	-28.977690	-1.092044	-0.223615	 9.884348	 19.464550	-13.583540	-2.323142	 25.162650	 1.271071	 15.716820	 44.445230	-11.630660	-8.532313	 23.008980	-1.162432
-0.060081	 1.210414	-3.859153	-3.289330	 0.574449	-173.655100	 171.411100	 6.425585	-5.768784	 4.914830	-32.877580	 5.746786	 6.295290	 82.459140	 1.508985	 1.520835	 31.346620	-2.815689	 171.614300	 24.546250	 10.414400	-8.924554	-64.140500	 2.952749	 67.711850	 85.730240	-59.933690	-1.698147	 33.347350	 3.485806	-1.608298	 7.995729	-2.809839	 0.236278	 3.563786	-0.770711	-0.332475	-3.972259	-0.670737	-121.533800	 7.854978	 94.266000	 7.848716	 45.172500	 5.282730	 36.983780	-1.783144	 0.512521	-2.399481	 3.484113	 7.751914	 4.681560	 19.571520	-1.717513	-5.862533	 22.029940	 2.435472	 5.347608	 4.716986	-0.162240	-0.175921	-4.857603	 0.006559	-2.056615	-2.229821	-3.319781	 118.391900	-0.447297	-90.625160	 22.646400	 49.794770	-22.555360	-29.941340	-1.125021	-0.242248	 10.079670	 18.466890	-14.858390	-2.138881	 23.899230	 1.178905	 15.393370	 43.124000	-11.121240	-8.534698	 21.797950	-1.082654
-0.058849	 1.207097	-3.933399	-3.252149	-0.119425	-172.801100	 171.888000	 1.406531	-4.945780	 4.269734	-29.323140	 6.683029	 17.913880	 83.787920	-10.683410	 1.554376	 31.761470	-2.831626	 169.101600	 32.361230	 13.624610	-7.790499	-60.981850	 5.237964	 78.350270	 84.318630	-69.792400	-1.678601	 33.186770	 3.206387	-1.321903	 7.585330	-3.876871	 0.293578	 4.030535	-1.051450	-0.341204	-4.314041	-0.982215	-121.442900	 8.485911	 94.573220	 17.493310	 40.975020	-0.447245	 35.135130	-1.705781	 0.456227	 0.577774	 0.833146	 5.094848	 4.685599	 19.629080	-1.722232	-5.862513	 22.039930	 2.436578	 5.348488	 4.737699	-0.161867	-0.176070	-4.860225	 0.090711	-1.869164	-2.477149	-3.336915	 118.239400	-0.718452	-90.495770	 27.435450	 49.553730	-25.497960	-28.806720	-1.086093	-0.220433	 9.064000	 17.134030	-16.115030	-1.956817	 22.623210	 1.091188	 15.089600	 41.787840	-10.627810	-8.535258	 20.575060	-1.002811
-0.057128	 1.202156	-3.998203	-3.208776	-0.817265	-171.921700	 172.478600	-2.958925	-4.040472	 3.686703	-25.878930	 7.749125	 32.332400	 84.251750	-25.749760	 1.588826	 32.183880	-2.848221	 167.045300	 36.872360	 16.704710	-6.438735	-56.156970	 8.118680	 98.293260	 82.435740	-88.329250	-1.659695	 33.023180	 2.922455	-1.072203	 7.214090	-4.886219	 0.368114	 4.055243	-1.336294	-0.358413	-4.452649	-1.225819	-121.353700	 9.128791	 94.885530	 25.388920	 36.840560	-4.238075	 30.657950	-1.511439	 0.330431	 6.511617	-2.979610	 2.769502	 4.689720	 19.687700	-1.727042	-5.862493	 22.050100	 2.437705	 5.349383	 4.758790	-0.161487	-0.176218	-4.862897	 0.176402	-1.678131	-2.729175	-3.353473	 118.084900	-0.994906	-90.364780	 30.138560	 49.464330	-26.763050	-26.498100	-1.005660	-0.178296	 8.206189	 15.670360	-17.204720	-1.775307	 21.324000	 1.007171	 14.802220	 40.425850	-10.145310	-8.533970	 19.330160	-0.922177
-0.052142	 1.193754	-4.069240	-3.061761	-0.943955	-171.607000	 173.459900	-7.504569	-3.642493	 3.337134	-23.709800	 7.125413	 25.314230	 84.251790	-19.189250	 1.895566	 35.781670	-3.005726	 167.310300	 39.938290	 16.534400	-5.776894	-53.238730	 8.627782	 83.032920	 82.500480	-73.589260	-1.697421	 33.481530	 2.900706	-0.785870	 7.040816	-5.803373	 0.537017	 4.393058	-1.641356	-0.385198	-4.673468	-1.252434	-121.284800	 9.299744	 94.964000	 30.548520	 34.071850	-7.892409	 27.431280	-1.365609	 0.249414	 8.050872	-5.951257	 1.581994	 4.770501	 19.858580	-1.765574	-5.862038	 22.331420	 2.468897	 5.365686	 5.141974	-0.154698	-0.168648	-4.911838	 0.212873	-1.578354	-2.788274	-3.137301	 118.125300	-1.176762	-90.282600	 31.824670	 49.108720	-26.976500	-24.691120	-0.941635	-0.147574	 7.206224	 12.543300	-19.310960	-1.670868	 19.214170	 0.959551	 14.413040	 38.402120	-9.462667	-8.528012	 17.314630	-0.792777
-0.044770	 1.179622	-4.149387	-2.879266	-0.968635	-171.358400	 174.693800	-12.047170	-3.075333	 3.179551	-22.707250	 6.175086	 15.558660	 84.464490	-10.100250	 2.344600	 40.531220	-3.264852	 168.283900	 43.512810	 15.531440	-6.029058	-54.401020	 7.933152	 87.989150	 83.221590	-78.863660	-1.752294	 34.128150	 2.928716	-0.457106	 6.881843	-6.829426	 0.741997	 4.505046	-1.961223	-0.420190	-4.786826	-1.265529	-121.210000	 9.401122	 95.007030	 32.111120	 32.595990	-9.637584	 28.177150	-1.399705	 0.267439	 7.773750	-10.208100	 0.825642	 4.878225	 20.075810	-1.816683	-5.861687	 22.706330	 2.510562	 5.387298	 5.651210	-0.145838	-0.158443	-4.976876	 0.244732	-1.482684	-2.816772	-2.844465	 118.210400	-1.365340	-90.198230	 33.628180	 48.402770	-27.014790	-24.390060	-0.930831	-0.142631	 7.337666	 8.655892	-21.898020	-1.569726	 16.643010	 0.916664	 13.996650	 35.955020	-8.685297	-8.514477	 14.859390	-0.636607
-0.037441	 1.165964	-4.217172	-2.709396	-0.983084	-171.099800	 175.886600	-15.740620	-2.539908	 3.081889	-22.078250	 5.268927	 3.908523	 84.009230	 0.907460	 2.863750	 45.309860	-3.600041	 169.661300	 46.558220	 14.087480	-6.822856	-57.668440	 6.750328	 117.524800	 83.337800	-108.158100	-1.808330	 34.778810	 2.957883	-0.141370	 6.724506	-7.761603	 0.848901	 4.360063	-2.176784	-0.417203	-4.779830	-1.279589	-121.134800	 9.503210	 95.050220	 31.164170	 32.410420	-9.806910	 31.257190	-1.538033	 0.346414	 7.416470	-15.366290	 0.538448	 4.986983	 20.294310	-1.868624	-5.861633	 23.083590	 2.552602	 5.408985	 6.163634	-0.137110	-0.148137	-5.042315	 0.276804	-1.386501	-2.845017	-2.549819	 118.296300	-1.554973	-90.113010	 35.322830	 47.661660	-26.933560	-25.276160	-0.962520	-0.157281	 8.406713	 4.668715	-24.350810	-1.471195	 14.055510	 0.878758	 13.630110	 33.488230	-7.947451	-8.494081	 12.388670	-0.480479
